<svg xmlns="http://www.w3.org/2000/svg" version="1.1" xmlns:xlink="http://www.w3.org/1999/xlink" xmlns:svgjs="http://svgjs.dev/svgjs" width="2000" height="459" viewBox="0 0 2000 459"><g transform="matrix(1,0,0,1,-1.2121212121212466,-1.072685149057122)"><svg viewBox="0 0 396 91" data-background-color="#dedede" preserveAspectRatio="xMidYMid meet" height="459" width="2000" xmlns="http://www.w3.org/2000/svg" xmlns:xlink="http://www.w3.org/1999/xlink"><g id="tight-bounds" transform="matrix(1,0,0,1,0.2400000000000091,0.21266742606579214)"><svg viewBox="0 0 395.52 90.5746651478684" height="90.5746651478684" width="395.52"><g><svg viewBox="0 0 546.4032204154933 125.12714584559627" height="90.5746651478684" width="395.52"><g><rect width="7.0263078229135045" height="125.12714584559627" x="125.46343661636638" y="0" fill="#ffffff" opacity="1" stroke-width="0" stroke="transparent" fill-opacity="1" class="rect-qz-0" data-fill-palette-color="primary" rx="1%" id="qz-0" data-palette-color="#000000"></rect></g><g transform="matrix(1,0,0,1,150.88322041549324,0.3112615568298338)"><svg viewBox="0 0 395.52000000000004 124.5046227319366" height="124.5046227319366" width="395.52000000000004"><g id="textblocktransform"><svg viewBox="0 0 395.52000000000004 124.5046227319366" height="124.5046227319366" width="395.52000000000004" id="textblock"><g><svg viewBox="0 0 395.52000000000004 77.91336678109322" height="77.91336678109322" width="395.52000000000004"><g transform="matrix(1,0,0,1,0,0)"><svg width="395.52000000000004" viewBox="2.75 -25.9 189.33 37.3" height="77.91336678109322" data-palette-color="#000000"><path d="M8.5-13.55L8.5-13.55 13.7-11.6Q15.55-10.9 16.53-9.47 17.5-8.05 17.5-6.3L17.5-6.3Q17.5-3.6 15.35-1.5 13.2 0.6 9.58 0.6 5.95 0.6 2.75-0.75L2.75-0.75Q3.05-1.95 3.05-4.95L3.05-4.95 3.05-6.95 3.95-6.95 4.3-4.35Q4.75-0.6 9.55-0.6L9.55-0.6Q11.7-0.6 13.13-1.93 14.55-3.25 14.55-4.95L14.55-4.95Q14.55-7.3 11.7-8.35L11.7-8.35 6.5-10.3Q4.75-10.95 3.85-12.35 2.95-13.75 2.95-15.5L2.95-15.5Q2.95-18.15 4.85-20.18 6.75-22.2 9.63-22.2 12.5-22.2 16.1-20.85L16.1-20.85Q15.8-19.65 15.8-16.65L15.8-16.65 15.8-14.65 14.9-14.65 14.55-17.25Q14.15-20.85 10-20.85L10-20.85Q8.15-20.85 6.95-19.7 5.75-18.55 5.75-17L5.75-17Q5.75-14.6 8.5-13.55ZM34.05-11.2L34.05-11.65 34.1-13.4 34.1-15.15Q34.1-21 30.3-21L30.3-21Q28.65-21 27.72-19.88 26.8-18.75 26.8-17.25 26.8-15.75 27.2-14.65L27.2-14.65Q26.35-13.9 24.85-13.9 23.35-13.9 23.35-16.35 23.35-18.8 25.27-20.5 27.2-22.2 30.75-22.2L30.75-22.2Q37.7-22.2 37.7-14L37.7-14 37.7-3.75Q37.7-1.05 39.2-1.05L39.2-1.05Q39.9-1.05 40.42-1.7 40.95-2.35 40.95-3.2 40.95-4.05 40.8-4.8L40.8-4.8 41.75-4.95Q41.95-4.2 41.95-3.3L41.95-3.3Q41.95-1.5 40.87-0.45 39.8 0.6 38.05 0.6 36.3 0.6 35.2-0.83 34.1-2.25 34.1-5.1L34.1-5.1 34.1-6Q33.25-2.6 31.4-1 29.55 0.6 27.12 0.6 24.7 0.6 23.22-0.93 21.75-2.45 21.75-4.98 21.75-7.5 24.1-9.47 26.45-11.45 30.85-11.45L30.85-11.45Q31.8-11.45 34.05-11.2L34.05-11.2ZM28.25-1.3L28.25-1.3Q30.35-1.3 32.02-3.68 33.7-6.05 34-10.35L34-10.35Q33.5-10.4 32.6-10.4L32.6-10.4Q28.6-10.4 26.87-8.72 25.15-7.05 25.15-4.85L25.15-4.85Q25.15-3.4 26-2.35 26.85-1.3 28.25-1.3ZM57.45-22.2Q59.4-22.2 60.62-20.55 61.85-18.9 61.85-16.4 61.85-13.9 59.8-13.9L59.8-13.9Q58.6-13.9 57.85-14.65L57.85-14.65Q58.5-16.1 58.5-17.6L58.5-17.6Q58.5-20.25 56.3-20.25L56.3-20.25Q54.45-20.25 53.02-17.18 51.6-14.1 51.6-8.25L51.6-8.25 51.6-1.6Q51.6-0.9 52.3-0.9L52.3-0.9 55.65-0.9 55.65 0 44.95 0 44.95-0.9 47.3-0.9Q48-0.9 48-1.6L48-1.6 48-20Q48-20.7 47.3-20.7L47.3-20.7 44.95-20.7 44.95-21.6 47.4-21.6Q50.4-21.6 51.6-21.9L51.6-21.9 51.6-15.5Q52.4-18.95 53.95-20.58 55.5-22.2 57.45-22.2ZM74.19-22.2L74.19-22.2Q77.64-22.2 79.64-19.9 81.64-17.6 81.64-13.15L81.64-13.15Q81.64-12.25 81.54-11.15L81.54-11.15 67.89-11.15 67.89-10.8Q67.89-6.05 69.62-3.33 71.34-0.6 74.07-0.6 76.79-0.6 78.54-2 80.29-3.4 80.94-6L80.94-6 81.89-5.8Q81.29-2.75 79.14-1.07 76.99 0.6 74.19 0.6L74.19 0.6Q69.84 0.6 66.97-2.45 64.09-5.5 64.09-10.78 64.09-16.05 66.99-19.13 69.89-22.2 74.19-22.2ZM78.19-14.85L78.19-14.85Q78.19-21 73.59-21L73.59-21Q71.29-21 69.67-18.5 68.04-16 67.94-12.15L67.94-12.15 77.99-12.15Q78.19-13.85 78.19-14.85ZM105.54-21L105.54-21 105.14-21.05Q104.69-24.15 102.89-24.15L102.89-24.15Q101.99-24.15 101.24-23.2 100.49-22.25 100.34-20.7L100.34-20.7Q103.04-18.65 103.04-15 103.04-11.35 100.92-9.38 98.79-7.4 95.39-7.4L95.39-7.4 90.94-7.4Q89.69-7.4 89.02-6.7 88.34-6 88.34-5.05 88.34-4.1 89.02-3.4 89.69-2.7 90.94-2.7L90.94-2.7 99.29-2.7Q102.29-2.7 103.82-1.33 105.34 0.05 105.34 2.15L105.34 2.15Q105.34 5.5 102.19 8.45 99.04 11.4 94.34 11.4L94.34 11.4Q90.74 11.4 88.49 9.7 86.24 8 86.24 5.4 86.24 2.8 88.99 0.4L88.99 0.4Q87.69 0.05 86.92-1.07 86.14-2.2 86.14-3.85 86.14-5.5 87.34-6.83 88.54-8.15 90.94-8.15L90.94-8.15 91.69-8.15Q87.79-9.95 87.79-14.8L87.79-14.8Q87.79-18.25 89.89-20.23 91.99-22.2 95.39-22.2L95.39-22.2Q97.64-22.2 99.34-21.3L99.34-21.3Q99.69-23.3 100.77-24.6 101.84-25.9 103.62-25.9 105.39-25.9 106.57-24.95 107.74-24 107.74-22.9L107.74-22.9Q107.74-21 105.54-21ZM99.29 0.6L99.29 0.6 90.54 0.6Q88.94 2.45 88.94 4.8 88.94 7.15 90.34 8.68 91.74 10.2 94.87 10.2 97.99 10.2 100.54 8 103.09 5.8 103.09 3.45L103.09 3.45Q103.09 2.2 102.14 1.4 101.19 0.6 99.29 0.6ZM92.49-19.4Q91.34-17.7 91.34-14.8 91.34-11.9 92.49-10.2 93.64-8.5 95.39-8.5 97.14-8.5 98.32-10.2 99.49-11.9 99.49-14.8 99.49-17.7 98.32-19.4 97.14-21.1 95.39-21.1 93.64-21.1 92.49-19.4ZM121.14-11.2L121.14-11.65 121.19-13.4 121.19-15.15Q121.19-21 117.39-21L117.39-21Q115.74-21 114.81-19.88 113.89-18.75 113.89-17.25 113.89-15.75 114.29-14.65L114.29-14.65Q113.44-13.9 111.94-13.9 110.44-13.9 110.44-16.35 110.44-18.8 112.36-20.5 114.29-22.2 117.84-22.2L117.84-22.2Q124.79-22.2 124.79-14L124.79-14 124.79-3.75Q124.79-1.05 126.29-1.05L126.29-1.05Q126.99-1.05 127.51-1.7 128.04-2.35 128.04-3.2 128.04-4.05 127.89-4.8L127.89-4.8 128.84-4.95Q129.04-4.2 129.04-3.3L129.04-3.3Q129.04-1.5 127.96-0.45 126.89 0.6 125.14 0.6 123.39 0.6 122.29-0.83 121.19-2.25 121.19-5.1L121.19-5.1 121.19-6Q120.34-2.6 118.49-1 116.64 0.6 114.21 0.6 111.79 0.6 110.31-0.93 108.84-2.45 108.84-4.98 108.84-7.5 111.19-9.47 113.54-11.45 117.94-11.45L117.94-11.45Q118.89-11.45 121.14-11.2L121.14-11.2ZM115.34-1.3L115.34-1.3Q117.44-1.3 119.11-3.68 120.79-6.05 121.09-10.35L121.09-10.35Q120.59-10.4 119.69-10.4L119.69-10.4Q115.69-10.4 113.96-8.72 112.24-7.05 112.24-4.85L112.24-4.85Q112.24-3.4 113.09-2.35 113.94-1.3 115.34-1.3ZM165.09-14.6L165.09-14.6 165.09-1.5Q165.09-0.9 165.79-0.9L165.79-0.9 168.14-0.9 168.14 0 159.14 0 159.14-0.9 160.79-0.9Q161.49-0.9 161.49-1.5L161.49-1.5 161.49-15.25Q161.49-17.8 160.44-19.03 159.39-20.25 157.59-20.25L157.59-20.25Q155.09-20.25 153.49-17.03 151.89-13.8 151.89-7.75L151.89-7.75 151.89-1.6Q151.89-0.9 152.59-0.9L152.59-0.9 154.94-0.9 154.94 0 145.94 0 145.94-0.9 147.59-0.9Q148.29-0.9 148.29-1.5L148.29-1.5 148.29-15.25Q148.29-17.8 147.24-19.03 146.19-20.25 144.39-20.25L144.39-20.25Q141.89-20.25 140.29-17.03 138.69-13.8 138.69-7.75L138.69-7.75 138.69-1.6Q138.69-0.9 139.39-0.9L139.39-0.9 141.04-0.9 141.04 0 132.04 0 132.04-0.9 134.39-0.9Q135.09-0.9 135.09-1.5L135.09-1.5 135.09-20Q135.09-20.7 134.39-20.7L134.39-20.7 132.04-20.7 132.04-21.6 134.49-21.6Q137.49-21.6 138.69-21.9L138.69-21.9 138.69-15.2Q140.34-22.2 145.79-22.2L145.79-22.2Q148.19-22.2 149.96-20.45 151.74-18.7 151.89-15.15L151.89-15.15Q153.54-22.2 158.99-22.2L158.99-22.2Q161.49-22.2 163.29-20.33 165.09-18.45 165.09-14.6ZM184.18-11.2L184.18-11.65 184.23-13.4 184.23-15.15Q184.23-21 180.43-21L180.43-21Q178.78-21 177.86-19.88 176.93-18.75 176.93-17.25 176.93-15.75 177.33-14.65L177.33-14.65Q176.48-13.9 174.98-13.9 173.48-13.9 173.48-16.35 173.48-18.8 175.41-20.5 177.33-22.2 180.88-22.2L180.88-22.2Q187.83-22.2 187.83-14L187.83-14 187.83-3.75Q187.83-1.05 189.33-1.05L189.33-1.05Q190.03-1.05 190.56-1.7 191.08-2.35 191.08-3.2 191.08-4.05 190.93-4.8L190.93-4.8 191.88-4.95Q192.08-4.2 192.08-3.3L192.08-3.3Q192.08-1.5 191.01-0.45 189.93 0.6 188.18 0.6 186.43 0.6 185.33-0.83 184.23-2.25 184.23-5.1L184.23-5.1 184.23-6Q183.38-2.6 181.53-1 179.68 0.6 177.26 0.6 174.83 0.6 173.36-0.93 171.88-2.45 171.88-4.98 171.88-7.5 174.23-9.47 176.58-11.45 180.98-11.45L180.98-11.45Q181.93-11.45 184.18-11.2L184.18-11.2ZM178.38-1.3L178.38-1.3Q180.48-1.3 182.16-3.68 183.83-6.05 184.13-10.35L184.13-10.35Q183.63-10.4 182.73-10.4L182.73-10.4Q178.73-10.4 177.01-8.72 175.28-7.05 175.28-4.85L175.28-4.85Q175.28-3.4 176.13-2.35 176.98-1.3 178.38-1.3Z" opacity="1" transform="matrix(1,0,0,1,0,0)" fill="#ffffff" class="wordmark-text-0" data-fill-palette-color="primary" id="text-0"></path></svg></g></svg></g><g transform="matrix(1,0,0,1,0,96.30684275730658)"><svg viewBox="0 0 232.20979200000002 28.197779974630024" height="28.197779974630024" width="232.20979200000002"><g transform="matrix(1,0,0,1,0,0)"><svg width="232.20979200000002" viewBox="0 -34.3 378.36 45.949999999999996" height="28.197779974630024" data-palette-color="#61777f"><path d="M6.05-29.1L6.05-29.1 10.25-30.55 10.6-30.3Q10.4-28.15 10.25-26.18 10.1-24.2 10.05-22L10.05-22 10.35-21.75 16.75-21.75 17-21.55 16.6-20.25 16.3-20 10.35-20 10.05-19.7 10.05-10.25Q10.05-8.5 10.28-6.75 10.5-5 11.28-3.88 12.05-2.75 13.6-2.75L13.6-2.75Q14.55-2.75 15.8-3.43 17.05-4.1 18.15-4.8L18.15-4.8 18.75-4.7 19.1-3.95Q17.4-2.35 15.25-0.95 13.1 0.45 10.9 0.45L10.9 0.45Q10.05 0.45 9.03 0.13 8-0.2 7.3-1.1L7.3-1.1Q6.8-1.8 6.55-2.6 6.3-3.4 6.23-5.1 6.15-6.8 6.15-10.15L6.15-10.15 6.15-19.65 5.85-20 0.25-20 0-20.25 0.35-21.45 0.65-21.75 5.85-21.75 6.15-22.05Q6.15-23.95 6.15-26.05 6.15-28.15 6.05-29.1ZM48.7-5.35L48.7-5.35 49.35-4.85 49.35-4.3Q47.7-2.55 45.72-1.03 43.75 0.5 41.5 0.5L41.5 0.5Q39.75 0.5 38.97-1.05 38.2-2.6 38.2-4.45L38.2-4.45Q38.2-5.8 38.25-7.53 38.3-9.25 38.35-10.83 38.4-12.4 38.4-13.3L38.4-13.3Q38.4-15.2 38.1-16.78 37.8-18.35 36.87-19.28 35.95-20.2 34.1-20.2L34.1-20.2Q32.05-20.2 30.25-19.23 28.45-18.25 27-17.2L27-17.2Q27-13.1 26.95-8.97 26.9-4.85 26.9-0.8L26.9-0.8 23.3 0.3 23-0.2Q23.25-5.15 23.45-10.1 23.65-15.05 23.7-20L23.7-20Q23.7-23.8 23.7-26.63 23.7-29.45 22.7-30.8L22.7-30.8Q22.35-31.25 21.1-31.58 19.85-31.9 18.85-32.1L18.85-32.1 18.85-33 19.1-33.2 27-34.05 27.3-33.7Q27.15-30.5 27.12-26.93 27.1-23.35 27.1-19.9L27.1-19.9 27.5-19.5Q29.7-20.85 32.25-22.08 34.8-23.3 37.55-23.3L37.55-23.3Q38.1-23.3 39.1-22.95 40.1-22.6 40.8-21.9L40.8-21.9Q41.95-20.85 41.97-18.43 42-16 42-13L42-13 42-9.3Q42-8.55 41.97-7.5 41.95-6.45 42.1-5.45 42.25-4.45 42.72-3.78 43.2-3.1 44.2-3.1L44.2-3.1Q45.65-3.1 46.82-3.9 48-4.7 48.7-5.35ZM69.69-15.95L69.69-15.95 55.59-9.85Q55.74-8.3 56.42-6.65 57.09-5 58.47-3.9 59.84-2.8 62.05-2.8L62.05-2.8Q64.09-2.8 66.07-3.85 68.05-4.9 69.75-6.2L69.75-6.2 70.3-6.1 70.94-5.2Q69.39-3.75 67.57-2.43 65.75-1.1 63.72-0.25 61.7 0.6 59.55 0.6L59.55 0.6Q57.05 0.6 55.42-0.45 53.8-1.5 52.89-3.23 51.99-4.95 51.62-7.08 51.24-9.2 51.24-11.3L51.24-11.3Q51.24-13.5 51.8-15.6 52.34-17.7 53.8-19.4L53.8-19.4Q55.64-21.55 58.22-22.73 60.8-23.9 63.64-23.9L63.64-23.9Q66.89-23.9 68.82-21.9 70.75-19.9 70.75-17L70.75-17Q70.75-16.55 70.42-16.35 70.09-16.15 69.69-15.95ZM57.7-19.8L57.7-19.8Q56.24-18.25 55.82-16.55 55.39-14.85 55.39-13L55.39-13Q55.39-12.8 55.42-12.58 55.45-12.35 55.49-12.1L55.49-12.1 55.7-11.9 65.8-15.9Q66.05-16 66.25-16.3 66.44-16.6 66.44-17.2L66.44-17.2Q66.44-18.25 65.89-19.35 65.34-20.45 64.32-21.18 63.3-21.9 61.89-21.9L61.89-21.9Q60.64-21.9 59.57-21.35 58.49-20.8 57.7-19.8ZM99.54-19.4L96.84-16.95 96.24-17.2Q96.04-18.25 95.44-19.18 94.84-20.1 93.59-20.1L93.59-20.1Q92.04-20.1 91.09-19.05 90.14-18 89.74-17L89.74-17Q89.39-16.2 89.34-14.7 89.29-13.2 89.34-11.53 89.39-9.85 89.39-8.5L89.39-8.5Q89.39-4.75 89.54-0.9L89.54-0.9 86.04 0.15 85.29-0.3Q85.54-2.95 85.71-6.05 85.89-9.15 85.89-12.15L85.89-12.15Q85.89-14.1 85.84-16.05 85.79-18 85.34-19.3 84.89-20.6 83.74-20.6L83.74-20.6Q82.89-20.6 81.84-20.1 80.79-19.6 79.84-19.05L79.84-19.05 79.24-19.9Q80.24-20.7 81.41-21.55 82.59-22.4 83.79-23.03 84.99-23.65 85.99-23.65L85.99-23.65Q87.69-23.65 88.54-22.65 89.39-21.65 89.59-20.05L89.59-20.05 90.09-19.85Q90.84-20.55 91.77-21.38 92.69-22.2 93.69-22.78 94.69-23.35 95.59-23.35L95.59-23.35Q99.14-23.35 99.54-19.4L99.54-19.4ZM129.49-5.35L129.49-5.35 130.14-4.85 130.14-4.3Q128.49-2.55 126.51-1.03 124.54 0.5 122.29 0.5L122.29 0.5Q120.54 0.5 119.76-1.05 118.99-2.6 118.99-4.45L118.99-4.45Q118.99-5.8 119.04-7.53 119.09-9.25 119.14-10.83 119.19-12.4 119.19-13.3L119.19-13.3Q119.19-15.2 118.89-16.78 118.59-18.35 117.66-19.28 116.74-20.2 114.89-20.2L114.89-20.2Q112.84-20.2 111.04-19.23 109.24-18.25 107.79-17.2L107.79-17.2Q107.79-13.1 107.74-8.97 107.69-4.85 107.69-0.8L107.69-0.8 104.09 0.3 103.79-0.2Q104.04-5.15 104.24-10.1 104.44-15.05 104.49-20L104.49-20Q104.49-23.8 104.49-26.63 104.49-29.45 103.49-30.8L103.49-30.8Q103.14-31.25 101.89-31.58 100.64-31.9 99.64-32.1L99.64-32.1 99.64-33 99.89-33.2 107.79-34.05 108.09-33.7Q107.94-30.5 107.91-26.93 107.89-23.35 107.89-19.9L107.89-19.9 108.29-19.5Q110.49-20.85 113.04-22.08 115.59-23.3 118.34-23.3L118.34-23.3Q118.89-23.3 119.89-22.95 120.89-22.6 121.59-21.9L121.59-21.9Q122.74-20.85 122.76-18.43 122.79-16 122.79-13L122.79-13 122.79-9.3Q122.79-8.55 122.76-7.5 122.74-6.45 122.89-5.45 123.04-4.45 123.51-3.78 123.99-3.1 124.99-3.1L124.99-3.1Q126.44-3.1 127.61-3.9 128.79-4.7 129.49-5.35ZM134.83 9.1L134.83 9.1 134.73 8.55 136.94 5.75 137.58 5.75Q138.38 7.15 139.73 8.38 141.08 9.6 142.78 9.6L142.78 9.6Q144.78 9.6 146.08 8.78 147.38 7.95 148.13 6.7 148.88 5.45 149.26 4.1 149.63 2.75 149.83 1.7L149.83 1.7Q150.08 0.45 150.13-0.78 150.19-2 150.23-3.2L150.23-3.2 149.94-3.45Q147.83-2.15 145.38-0.88 142.94 0.4 140.53 0.4L140.53 0.4Q138.73 0.4 137.69-0.4 136.63-1.2 136.13-2.48 135.63-3.75 135.48-5.18 135.33-6.6 135.33-7.85L135.33-7.85Q135.33-9.55 135.44-11.2 135.53-12.85 135.53-14.7L135.53-14.7Q135.53-17.4 135.16-18.95 134.78-20.5 133.23-20.5L133.23-20.5Q132.58-20.5 131.56-20.03 130.53-19.55 129.69-19.1L129.69-19.1 129.13-20.05Q129.38-20.25 130.19-20.78 130.98-21.3 132.01-21.9 133.03-22.5 134.13-22.95 135.23-23.4 136.08-23.4L136.08-23.4Q137.69-23.4 138.46-22.35 139.23-21.3 139.23-19.9L139.23-19.9Q139.23-17.8 139.13-15.65 139.03-13.5 139.03-11.3L139.03-11.3Q139.13-9 139.31-7.6 139.48-6.2 139.76-5.43 140.03-4.65 140.44-4.1L140.44-4.1Q140.98-3.4 141.83-3.1 142.69-2.8 143.58-2.8L143.58-2.8Q145.38-2.8 147.13-3.7 148.88-4.6 150.28-5.4L150.28-5.4Q150.33-6.7 150.36-8.05 150.38-9.4 150.38-10.75L150.38-10.75Q150.38-13.45 150.28-16.13 150.19-18.8 149.98-21.4L149.98-21.4 153.94-23.3 154.53-23.1Q154.28-19.3 154.23-15.5 154.19-11.7 154.16-8.28 154.13-4.85 154.01-2.1 153.88 0.65 153.48 2.45L153.48 2.45Q152.58 5.7 150.71 7.73 148.83 9.75 146.36 10.7 143.88 11.65 141.19 11.65L141.19 11.65Q139.44 11.65 137.63 10.9 135.83 10.15 134.83 9.1ZM164.28-29.1L164.28-29.1 168.48-30.55 168.83-30.3Q168.63-28.15 168.48-26.18 168.33-24.2 168.28-22L168.28-22 168.58-21.75 174.98-21.75 175.23-21.55 174.83-20.25 174.53-20 168.58-20 168.28-19.7 168.28-10.25Q168.28-8.5 168.51-6.75 168.73-5 169.51-3.88 170.28-2.75 171.83-2.75L171.83-2.75Q172.78-2.75 174.03-3.43 175.28-4.1 176.38-4.8L176.38-4.8 176.98-4.7 177.33-3.95Q175.63-2.35 173.48-0.95 171.33 0.45 169.13 0.45L169.13 0.45Q168.28 0.45 167.26 0.13 166.23-0.2 165.53-1.1L165.53-1.1Q165.03-1.8 164.78-2.6 164.53-3.4 164.46-5.1 164.38-6.8 164.38-10.15L164.38-10.15 164.38-19.65 164.08-20 158.48-20 158.23-20.25 158.58-21.45 158.88-21.75 164.08-21.75 164.38-22.05Q164.38-23.95 164.38-26.05 164.38-28.15 164.28-29.1ZM206.93-5.35L206.93-5.35 207.58-4.85 207.58-4.3Q205.93-2.55 203.95-1.03 201.98 0.5 199.73 0.5L199.73 0.5Q197.98 0.5 197.2-1.05 196.43-2.6 196.43-4.45L196.43-4.45Q196.43-5.8 196.48-7.53 196.53-9.25 196.58-10.83 196.63-12.4 196.63-13.3L196.63-13.3Q196.63-15.2 196.33-16.78 196.03-18.35 195.1-19.28 194.18-20.2 192.33-20.2L192.33-20.2Q190.28-20.2 188.48-19.23 186.68-18.25 185.23-17.2L185.23-17.2Q185.23-13.1 185.18-8.97 185.13-4.85 185.13-0.8L185.13-0.8 181.53 0.3 181.23-0.2Q181.48-5.15 181.68-10.1 181.88-15.05 181.93-20L181.93-20Q181.93-23.8 181.93-26.63 181.93-29.45 180.93-30.8L180.93-30.8Q180.58-31.25 179.33-31.58 178.08-31.9 177.08-32.1L177.08-32.1 177.08-33 177.33-33.2 185.23-34.05 185.53-33.7Q185.38-30.5 185.35-26.93 185.33-23.35 185.33-19.9L185.33-19.9 185.73-19.5Q187.93-20.85 190.48-22.08 193.03-23.3 195.78-23.3L195.78-23.3Q196.33-23.3 197.33-22.95 198.33-22.6 199.03-21.9L199.03-21.9Q200.18-20.85 200.2-18.43 200.23-16 200.23-13L200.23-13 200.23-9.3Q200.23-8.55 200.2-7.5 200.18-6.45 200.33-5.45 200.48-4.45 200.95-3.78 201.43-3.1 202.43-3.1L202.43-3.1Q203.88-3.1 205.06-3.9 206.23-4.7 206.93-5.35ZM226.73 0.5L226.23 0.2Q226.23-0.6 226.35-2.75 226.48-4.9 226.6-7.75 226.73-10.6 226.73-13.45L226.73-13.45Q226.73-16.55 225.93-18.28 225.13-20 222.63-20L222.63-20Q221.48-20 220.2-19.53 218.93-19.05 217.98-18.5 217.03-17.95 216.78-17.8L216.78-17.8Q216.68-15.1 216.6-12.4 216.53-9.7 216.53-6.95L216.53-6.95Q216.53-5.4 216.55-3.83 216.58-2.25 216.63-0.7L216.63-0.7 213.28 0.5 212.58 0.1Q212.63-3.35 212.78-6.8 212.93-10.25 212.93-13.65L212.93-13.65Q212.93-15.55 212.85-17.13 212.78-18.7 212.38-19.65 211.98-20.6 210.93-20.6L210.93-20.6Q210.33-20.6 209.18-20.13 208.03-19.65 207.18-19.15L207.18-19.15 206.58-20.1Q208.08-21.3 209.83-22.4 211.58-23.5 213.43-23.55L213.43-23.55Q215.33-23.55 215.93-22.4 216.53-21.25 216.53-19.85L216.53-19.85 216.93-19.55Q218.88-20.6 221.08-21.78 223.28-22.95 225.53-22.95L225.53-22.95Q226.93-22.95 228.13-22.25 229.33-21.55 230.03-20.35L230.03-20.35 230.83-20.25Q231.78-20.75 233.08-21.4 234.38-22.05 235.88-22.53 237.38-23 238.83-23L238.83-23Q239.93-23 240.95-22.73 241.98-22.45 242.78-21.65L242.78-21.65Q243.78-20.65 243.78-18.4 243.78-16.15 243.78-12.4L243.78-12.4 243.78-5.85Q243.78-5.2 243.95-4.42 244.13-3.65 244.68-3.13 245.23-2.6 246.33-2.6L246.33-2.6Q247.13-2.6 248.2-3.28 249.28-3.95 250.18-4.6L250.18-4.6 250.88-4.6 251.23-3.55Q250.13-2.55 248.83-1.5 247.53-0.45 246.13 0.23 244.73 0.9 243.23 0.9L243.23 0.9Q241.48 0.9 240.65-0.33 239.83-1.55 239.83-2.95L239.83-2.95Q239.83-3.25 239.88-4.4 239.93-5.55 239.95-7.13 239.98-8.7 240.03-10.38 240.08-12.05 240.08-13.45L240.08-13.45Q240.08-16.55 239.18-18.28 238.28-20 235.83-20L235.83-20Q233.98-20 232.63-19.45 231.28-18.9 230.23-18.3L230.23-18.3Q230.18-16.6 230.15-14.88 230.13-13.15 230.13-11.4L230.13-11.4Q230.13-6.1 230.43-0.9L230.43-0.9 226.73 0.5ZM270.12 0.7L270.12 0.7Q266.67 0.7 264.6-0.83 262.52-2.35 261.57-4.75 260.62-7.15 260.42-9.8L260.42-9.8Q260.42-12.4 260.9-15 261.37-17.6 263.17-19.55L263.17-19.55Q264.92-21.5 267.45-22.38 269.97-23.25 272.57-23.25L272.57-23.25Q276.27-23.25 278.42-21.6 280.57-19.95 281.52-17.35 282.47-14.75 282.47-11.95L282.47-11.95Q282.47-9.5 281.85-7.15 281.22-4.8 279.57-2.95L279.57-2.95Q277.82-0.95 275.3-0.13 272.77 0.7 270.12 0.7ZM265.12-15.8L265.12-15.8Q264.92-14.85 264.82-13.9 264.72-12.95 264.72-11.95L264.72-11.95Q264.72-10.4 265.02-8.55 265.32-6.7 266.05-5.08 266.77-3.45 268.1-2.4 269.42-1.35 271.47-1.35L271.47-1.35Q273.52-1.35 274.8-2.25 276.07-3.15 276.77-4.6 277.47-6.05 277.75-7.75 278.02-9.45 278.02-11L278.02-11Q278.02-12.55 277.77-14.33 277.52-16.1 276.85-17.7 276.17-19.3 274.85-20.3 273.52-21.3 271.42-21.3L271.42-21.3Q269.42-21.3 267.62-19.95 265.82-18.6 265.12-15.8ZM285.02-21.4L285.37-21.7 290.62-21.7 290.92-22Q290.92-23.3 291.07-25.03 291.22-26.75 291.82-28.1L291.82-28.1Q292.97-30.75 295.05-32.1 297.12-33.45 299.47-33.45L299.47-33.45Q301.52-33.45 302.57-32.6 303.62-31.75 304.12-30.75L304.12-30.75 301.22-28.05 300.62-28.25Q300.52-28.8 300.3-29.55 300.07-30.3 299.5-30.88 298.92-31.45 297.72-31.45L297.72-31.45Q296.67-31.45 296-30.15 295.32-28.85 295.02-26.7 294.72-24.55 294.72-22L294.72-22 294.92-21.7 301.12-21.7 301.37-21.35 301.02-20.25 300.67-19.95 294.92-19.95 294.62-19.65 294.62-14.1Q294.62-10.6 294.75-7.13 294.87-3.65 295.12-0.6L295.12-0.6 291.17 0.6 290.32 0.05Q290.57-3.65 290.77-7.2 290.97-10.75 290.97-14.15L290.97-14.15 290.97-19.55 290.67-19.95 285.07-19.95 284.82-20.3 285.02-21.4ZM323.06-5.6L323.06-5.6 323.62-5.6 324.17-5Q323.31-3.7 322.17-2.4 321.01-1.1 319.62-0.28 318.22 0.55 316.56 0.55L316.56 0.55Q315.31 0.55 314.39-0.03 313.47-0.6 312.97-2.13 312.47-3.65 312.47-6.5L312.47-6.5 312.81-25.4Q312.81-26.65 312.79-28.08 312.76-29.5 312.56-30.4L312.56-30.4Q312.42-31.2 311.67-31.48 310.92-31.75 309.97-31.8 309.01-31.85 308.22-31.9L308.22-31.9 308.22-33.05 308.51-33.3 316.76-34.3 317.06-33.95Q316.92-28.7 316.64-23.45 316.37-18.2 316.37-12.95L316.37-12.95Q316.37-10.5 316.34-8.3 316.31-6.1 316.79-4.73 317.26-3.35 318.76-3.25L318.76-3.25Q320.01-3.25 321.06-4.03 322.12-4.8 323.06-5.6ZM333.96-31.25L333.96-31.25Q333.91-30 333.04-29.23 332.16-28.45 330.96-28.45L330.96-28.45Q329.76-28.45 328.91-29.3 328.06-30.15 328.06-31.35L328.06-31.35Q328.06-32.65 329.11-33.4 330.16-34.15 331.26-34.15L331.26-34.15Q332.56-34.15 333.26-33.27 333.96-32.4 333.96-31.25ZM333.26-19.6L333.26-19.6 332.86-9.1Q332.86-6.35 333.31-4.8 333.76-3.25 335.06-3.25L335.06-3.25Q336.51-3.25 337.59-3.93 338.66-4.6 339.66-5.5L339.66-5.5 340.31-5 340.31-4.45Q339.46-3.35 338.34-2.23 337.21-1.1 335.94-0.35 334.66 0.4 333.26 0.4L333.26 0.4Q332.21 0.4 331.29 0.03 330.36-0.35 329.81-1.55 329.26-2.75 329.26-5.2L329.26-5.2 329.56-16.25Q329.56-18.2 329.19-19.35 328.81-20.5 327.81-20.5L327.81-20.5Q327.01-20.5 325.86-19.98 324.71-19.45 323.81-18.9L323.81-18.9 323.16-19.8Q324.86-21.15 326.79-22.35 328.71-23.55 330.16-23.55L330.16-23.55Q331.86-23.55 332.56-22.4 333.26-21.25 333.26-19.6ZM339.96-21.4L340.31-21.7 345.56-21.7 345.86-22Q345.86-23.3 346.01-25.03 346.16-26.75 346.76-28.1L346.76-28.1Q347.91-30.75 349.99-32.1 352.06-33.45 354.41-33.45L354.41-33.45Q356.46-33.45 357.51-32.6 358.56-31.75 359.06-30.75L359.06-30.75 356.16-28.05 355.56-28.25Q355.46-28.8 355.24-29.55 355.01-30.3 354.44-30.88 353.86-31.45 352.66-31.45L352.66-31.45Q351.61-31.45 350.94-30.15 350.26-28.85 349.96-26.7 349.66-24.55 349.66-22L349.66-22 349.86-21.7 356.06-21.7 356.31-21.35 355.96-20.25 355.61-19.95 349.86-19.95 349.56-19.65 349.56-14.1Q349.56-10.6 349.69-7.13 349.81-3.65 350.06-0.6L350.06-0.6 346.11 0.6 345.26 0.05Q345.51-3.65 345.71-7.2 345.91-10.75 345.91-14.15L345.91-14.15 345.91-19.55 345.61-19.95 340.01-19.95 339.76-20.3 339.96-21.4ZM377.11-15.95L377.11-15.95 363.01-9.85Q363.16-8.3 363.83-6.65 364.51-5 365.88-3.9 367.26-2.8 369.46-2.8L369.46-2.8Q371.51-2.8 373.48-3.85 375.46-4.9 377.16-6.2L377.16-6.2 377.71-6.1 378.36-5.2Q376.81-3.75 374.98-2.43 373.16-1.1 371.13-0.25 369.11 0.6 366.96 0.6L366.96 0.6Q364.46 0.6 362.83-0.45 361.21-1.5 360.31-3.23 359.41-4.95 359.03-7.08 358.66-9.2 358.66-11.3L358.66-11.3Q358.66-13.5 359.21-15.6 359.76-17.7 361.21-19.4L361.21-19.4Q363.06-21.55 365.63-22.73 368.21-23.9 371.06-23.9L371.06-23.9Q374.31-23.9 376.23-21.9 378.16-19.9 378.16-17L378.16-17Q378.16-16.55 377.83-16.35 377.51-16.15 377.11-15.95ZM365.11-19.8L365.11-19.8Q363.66-18.25 363.23-16.55 362.81-14.85 362.81-13L362.81-13Q362.81-12.8 362.83-12.58 362.86-12.35 362.91-12.1L362.91-12.1 363.11-11.9 373.21-15.9Q373.46-16 373.66-16.3 373.86-16.6 373.86-17.2L373.86-17.2Q373.86-18.25 373.31-19.35 372.76-20.45 371.73-21.18 370.71-21.9 369.31-21.9L369.31-21.9Q368.06-21.9 366.98-21.35 365.91-20.8 365.11-19.8Z" opacity="1" transform="matrix(1,0,0,1,0,0)" fill="#ffffff" class="slogan-text-1" data-fill-palette-color="secondary" id="text-1"></path></svg></g></svg></g></svg></g></svg></g><g transform="matrix(1,0,0,1,0,0.3112615568298338)"><svg viewBox="0 0 107.06996064015301 124.5046227319366" height="124.5046227319366" width="107.06996064015301"><g><svg xmlns="http://www.w3.org/2000/svg" xmlns:xlink="http://www.w3.org/1999/xlink" version="1.1" x="0" y="0" viewBox="5.918337645267354 0.9999868636563767 83.77966235473265 97.42186502843674" enable-background="new 0 0 100 100" xml:space="preserve" height="124.5046227319366" width="107.06996064015301" class="icon-icon-0" data-fill-palette-color="accent" id="icon-0"><path d="M31.716 11.832v2.797h-0.027v59.523c-3.111-1.391-6.916-1.955-10.897-1.393-9.153 1.293-15.768 8.035-14.775 15.064 0.992 7.027 9.216 11.676 18.369 10.383 8.646-1.221 15.023-7.307 14.867-13.9h0.006V35.628c16.611-4.931 33.46-6.991 42.868-7.816v36.465c-3.111-1.393-6.917-1.957-10.897-1.395-9.153 1.293-15.768 8.037-14.775 15.064s9.216 11.678 18.369 10.385c8.645-1.223 15.023-7.309 14.866-13.902h0.008V27.293 4.753 1.202C52.01-0.73 31.716 11.832 31.716 11.832z" fill="#ffffff" data-fill-palette-color="accent"></path></svg></g></svg></g></svg></g><defs></defs></svg><rect width="395.52" height="90.5746651478684" fill="none" stroke="none" visibility="hidden"></rect></g></svg></g></svg>